<svg width="283" height="238" viewBox="0 0 283 238" fill="none" xmlns="http://www.w3.org/2000/svg">
<path fill-rule="evenodd" clip-rule="evenodd" d="M48.8224 2.49945C44.2444 7.04059 34.1384 22.2039 11.3454 58.7308C3.98844 70.5206 13.4644 51.5047 33.1814 14.9135C39.6284 2.9493 40.4124 0.419587 37.5314 0.882799C35.1064 1.27256 31.5934 6.04489 17.7864 27.7023C11.1924 38.0457 5.66244 46.396 5.49844 46.2583C5.33344 46.1215 7.70544 39.1265 10.7684 30.7145C13.8324 22.3024 16.1134 14.9302 15.8384 14.3318C14.6864 11.8263 12.2504 13.6416 8.33244 19.9271C4.19444 26.5656 3.71344 29.7062 7.24344 27.0396C8.63644 25.9872 8.07544 28.4034 4.59944 38.4171C0.223439 51.029 -0.286555 54.1354 1.92244 54.7422C3.60544 55.2037 6.10944 51.9129 16.7234 35.2923C21.9754 27.068 26.2734 20.5563 26.2744 20.8218C26.2754 21.088 23.1244 27.0422 19.2744 34.0529C10.7514 49.5718 3.63344 64.3737 2.76644 68.3823C2.30644 70.5072 2.54544 71.6498 3.60144 72.3818C5.65944 73.8073 6.53745 72.6297 22.7894 46.6289C40.2274 18.7327 49.2754 5.41893 49.2754 7.65654C49.2754 7.98037 41.2344 21.6706 31.4074 38.0783C4.66445 82.7285 -0.481561 93.1404 3.55744 94.434C6.67944 95.4339 9.00644 92.2465 34.6524 51.8344C53.1694 22.6554 62.1194 9.07121 62.8264 9.07121C63.7704 9.07121 57.1984 20.2409 38.2474 50.8404C3.18344 107.459 -2.45956 118.197 2.40344 119.041C5.82344 119.634 14.6694 107.346 45.2194 59.5654C65.3964 28.0095 77.4844 9.80233 77.9844 10.2188C78.2424 10.435 74.8414 16.6353 70.4254 23.9966C62.3534 37.4548 60.5644 40.2299 37.2724 75.4231C19.1144 102.859 18.0104 104.587 10.2084 117.774C6.33544 124.318 2.74744 130.317 2.23444 131.105C0.392441 133.932 -0.655558 139.587 0.455442 140.704C2.15244 142.411 3.32844 142.002 7.56844 138.228C9.76044 136.277 10.8524 135.62 9.99544 136.767C9.13744 137.915 6.82544 142.32 4.85644 146.556C0.252443 156.46 0.101441 161.935 4.47044 160.536C7.10744 159.692 17.1674 145.01 56.2144 85.0212C88.3134 35.7071 105.939 9.85908 108.296 8.64305C111.268 7.10986 97.2414 31.8712 83.2304 52.8885C76.2784 63.3179 44.5874 109.98 36.7504 121.327C18.4284 147.854 7.63944 165.106 4.73244 172.524C3.41144 175.895 3.30144 177.101 4.23144 178.037C7.87744 181.703 9.21544 179.823 77.7834 74.6595C106.506 30.6068 120.754 10.0268 121.878 10.9658C122.668 11.6251 115.05 25.9438 106.458 39.952C93.4644 61.1354 72.2824 93.3148 34.7644 148.869C13.0254 181.058 2.01844 198.518 0.765439 202.797C0.287439 204.43 0.568438 205.121 1.87944 205.541C3.17044 205.954 5.03344 204.864 8.95544 201.403L14.2794 196.704L9.65844 204.682C4.48144 213.62 2.94344 219.854 5.69844 220.737C10.4494 222.259 20.7894 208.013 57.2584 149.704C116.87 54.39 136.156 25.1359 148.921 10.6645C158.147 0.204251 154.663 9.33411 140.771 32.0231C128.182 52.583 113.809 74.142 66.7654 143.027C30.8904 195.559 16.0804 218.861 14.6564 225.015C14.1634 227.146 14.4104 227.836 15.8304 228.291C18.7234 229.218 25.7044 222.043 35.9114 207.653C51.2424 186.04 56.5724 177.802 115.527 84.6039C143.685 40.0889 164.731 9.17386 166.098 10.3148C166.737 10.8473 153.065 33.6198 138.534 56.227C126.747 74.5651 118.303 87.4057 71.2964 158.467C41.1764 204 26.2754 228.063 26.2754 231.172C26.2754 232.19 26.9814 232.748 28.2694 232.748C32.7994 232.748 43.1935 217.741 89.2485 144.696C146.237 54.3107 168.717 20.9386 179.768 10.3231C182.315 7.87604 182.36 7.86686 181.753 9.90582C180.854 12.9296 165.472 39.1399 156.038 53.7231C149.678 63.5557 121.164 106.558 106.784 128.004C105.553 129.84 103.084 133.596 101.298 136.35C99.5124 139.104 96.5744 143.423 94.7694 145.948C87.2504 156.469 55.3094 205.019 47.1194 218.377C37.7104 233.72 36.3614 237.756 40.6384 237.756C42.9414 237.756 49.5384 232.605 53.4664 227.74C55.0504 225.779 55.0524 225.919 53.5044 230.083C50.8084 237.334 54.5464 239.978 60.4854 235.021C70.0924 227.003 85.2744 203.97 133.775 123.831C149.055 98.5837 165.387 72.2933 170.068 65.4077C174.75 58.5222 182.918 45.9403 188.22 37.4481C200.619 17.5876 212.101 3.2289 215.582 3.2289C218.02 3.2289 211.672 17.6502 202.581 32.7676C195.422 44.6717 178.304 70.9287 162.531 94.202C149.168 113.918 144.506 120.672 126.232 146.783C75.7454 218.921 66.0484 234.516 70.8564 235.835C76.9414 237.505 93.6144 213.549 152.296 118.823C198.132 44.8328 218.629 14.3118 226.283 8.6539L228.541 6.98467L227.799 9.07121C224.771 17.5935 215.844 33.1156 198.519 59.9827C187.706 76.751 167.955 106.421 158.794 119.658C130.442 160.622 98.3824 208.392 90.7274 221.079C84.6334 231.177 83.5594 233.949 85.3764 234.886C87.3634 235.911 91.9844 230.802 102.576 215.871C114.994 198.365 115.318 198.012 108.911 208.962C101.91 220.926 99.0484 227.638 99.4504 231.153C99.7014 233.353 100.23 234 101.775 234C105.721 234 114.281 221.555 165.781 140.94C221.604 53.5604 247.367 15.8717 254.791 10.7288C256.426 9.59702 256.505 9.66379 255.812 11.5817C251.653 23.0894 233.947 49.843 173.24 136.35C130.408 197.385 112.971 225.794 114.737 231.666C115.476 234.123 118.312 234.14 120.994 231.705C127.599 225.706 144.643 200.126 179.523 143.862C194.51 119.686 197.019 115.687 213.031 90.4462C234.509 56.5892 249.883 34.2958 258.543 24.454C261.22 21.411 263.673 19.14 263.993 19.4079C264.779 20.0639 244.963 53.1848 231.728 73.3366C225.849 82.2878 215.959 97.4987 209.749 107.139C197.579 126.032 196.778 127.253 175.418 159.507C155.708 189.271 134.57 222.457 132.642 226.665C130.902 230.465 131.344 232.994 133.621 232.265C135.386 231.699 145.337 216.621 166.073 183.089C198.696 130.335 207.37 116.578 223.436 92.1154C241.602 64.4546 254.56 46.2133 262.966 36.465C268.877 29.6111 273.275 25.6934 273.275 27.2825C273.275 29.7054 238.398 84.361 193.29 152.625C162.529 199.179 144.275 229.083 144.275 232.924C144.275 243.614 160.978 221.272 215.544 137.593C254.464 77.907 276.537 45.1992 277.043 46.4653C278.396 49.853 256.283 85.0896 224.564 130.09C182.263 190.103 168.137 211.108 162.782 221.959C158.923 229.779 158.544 232.037 160.821 233.614C166.539 237.575 180.82 217.688 228.274 139.689C254.248 96.9963 268.651 74.7888 273.746 69.5808C275.342 67.9483 275.364 67.9575 274.722 69.9981C272.954 75.6143 252.182 110.799 239.246 130.09C230.011 143.862 188.369 208.288 180.812 220.497C173.408 232.458 172.008 236.504 175.275 236.504C178.383 236.504 187.309 223.388 221.284 168.9C252.134 119.423 274.115 87.1136 275.907 88.6092C277.153 89.6492 264.676 109.697 229.836 162.64C204.597 200.994 191.443 222.396 188.257 230.289C186.337 235.045 186.291 235.623 187.732 236.825C192.422 240.74 200.011 230.436 235.301 172.239C257.927 134.925 269.087 117.536 272.798 113.815L275.295 111.312L273.233 115.834C269.078 124.947 250.414 156.492 228.502 191.435C212.296 217.279 203.275 232.684 203.275 234.517C203.275 236.639 205.471 236.496 208.014 234.209C212.625 230.061 227.245 208.492 262.746 153.46C278.491 129.052 281.003 125.819 276.227 136.111C271.253 146.828 259.053 167.607 236.64 203.537C216.294 236.152 217 234.857 218.865 236.148C220.079 236.99 220.865 236.762 223.205 234.891C226.689 232.105 238.358 214.96 252.887 191.279C258.854 181.554 263.886 173.722 264.07 173.875C264.253 174.029 262.853 176.728 260.959 179.874C255.608 188.756 240.416 216.529 236.657 224.298C232.847 232.173 232.246 236.375 234.992 235.933C237.595 235.515 240.671 231.145 257.208 204.371C271.157 181.788 276.717 173.561 273.002 181.002C272.2 182.609 267.261 192.374 262.026 202.702C249.114 228.175 247.342 233.201 250.922 234.185C252.599 234.644 254.975 231.52 265.989 214.369C271.437 205.887 276.531 198.111 277.31 197.089C278.384 195.68 278.445 194.998 277.564 194.263C276.086 193.03 273.349 196.572 262.751 213.432C258.407 220.342 254.705 225.874 254.525 225.723C254.193 225.446 258.275 217.097 271.292 191.435C278.74 176.75 280.68 170.976 278.157 170.999C277.397 171.007 276.226 171.303 275.555 171.659C273.364 172.821 264.91 185.334 252.426 205.893C241.384 224.078 237.706 229.578 240.191 224.193C241.237 221.926 253.426 199.645 267.015 175.16C279.096 153.39 280.064 151.281 278.547 150.014C276.434 148.251 272.77 153.087 257.754 177.46C240.056 206.186 229.415 222.849 228.042 223.985C227.488 224.444 231.616 217.496 237.217 208.544C255.739 178.939 276.016 144.44 279.169 137.168C286.086 121.214 281.08 119.634 271.289 134.681C265.047 144.273 242.875 178.226 229.049 199.364C221.393 211.069 214.644 221.022 214.051 221.481C213.458 221.94 215.689 217.996 219.01 212.717C256.15 153.672 276.583 119.05 278.612 111.722C279.407 108.853 278.038 107.241 275.399 107.941C270.561 109.222 264.619 117.912 232.295 170.987C206.616 213.15 198.516 225.628 192.75 231.914C190.435 234.436 190.166 234.55 190.78 232.748C193.354 225.187 207.347 202.23 232.662 164.034C265.845 113.971 279.355 91.9268 279.613 87.4282C279.746 85.1013 279.387 84.558 277.57 84.3418C275.423 84.0873 274.095 85.3092 265.013 95.9029C264.044 97.033 265.667 93.8264 268.619 88.777C275.405 77.1717 279.275 69.0442 279.275 66.3976C279.275 62.9431 276.444 62.9623 272.566 66.4435L269.07 69.5808L272.668 63.5574C278.321 54.0962 281.66 45.0765 280.379 42.7296C279.795 41.6613 278.881 40.7866 278.347 40.7866C275.687 40.7866 263.969 57.524 228.969 111.312C221.8 122.329 213.61 134.91 210.768 139.271C184.425 179.698 151.562 227.423 150.613 226.631C149.904 226.04 183.069 173.428 203.05 143.444C209.281 134.094 240.001 87.1595 249.757 72.0847C265.375 47.9518 277.41 27.3802 277.07 25.3971C276.324 21.0454 270.691 23.5994 262.456 32.0231L259.192 35.3616L262.087 30.3539C267.32 21.3017 268.689 17.5876 267.306 16.1963C265.414 14.2934 261.244 16.4884 256.708 21.7741C251.426 27.931 250.706 28.4259 253.332 24.0943C256.869 18.2595 260.108 9.97009 259.548 8.18401C258.855 5.97228 255.125 6.11166 252.556 8.44525C251.419 9.47767 248.641 12.5449 246.382 15.2607C241.616 20.9904 241.379 20.9253 244.728 14.8059C248.046 8.74237 248.927 3.88491 246.957 2.52031C245.713 1.65815 245.068 1.81256 243.287 3.39499C239.13 7.08983 224.411 28.3408 190.797 79.1789C178.808 97.3109 165.735 117.029 161.745 122.996C118.832 187.179 94.5454 222.733 93.6134 222.733C92.8144 222.733 122.234 178.526 152.768 133.846C196.577 69.7411 221.692 30.7003 228.247 16.5143C234.85 2.22152 228.571 -0.303189 218.056 12.4172C216.398 14.4228 216.39 14.3677 217.806 10.8439C220.002 5.38471 219.759 0.965424 217.226 0.294393C216.028 -0.0227605 214.18 0.296894 212.777 1.06474C210.648 2.22903 209.213 3.58361 203.275 10.0327C201.86 11.5692 201.775 11.4874 201.775 8.58963C201.775 6.53231 201.18 5.20944 199.972 4.58265C198.464 3.79978 197.638 4.12528 194.936 6.5682C186.826 13.9003 163.025 50.4781 116.731 126.752C99.2614 155.536 70.3814 199.925 59.4444 214.804C52.8474 223.779 43.4704 234.417 42.1574 234.417C40.1694 234.417 60.1894 203.031 100.985 142.192C157.018 58.6307 168.059 41.7272 178.193 23.9908C184.241 13.4062 186.829 7.15576 185.761 5.71355C182.932 1.89268 173.19 10.9549 160.84 28.8933C158.233 32.68 155.934 35.7789 155.732 35.7789C155.53 35.7789 158.665 30.1544 162.699 23.2797C170.281 10.3574 171.526 7.42201 170.189 5.61673C167.898 2.52365 159.026 12.0833 146.262 31.3972C142.849 36.5618 139.878 40.7866 139.659 40.7866C139.441 40.7866 142.476 35.4342 146.404 28.8933C158.263 9.14549 160.493 2.39428 155.157 2.39428C152.815 2.39428 148.67 5.81287 143.519 11.9924C141.606 14.2876 140.373 15.4143 140.779 14.4962C141.185 13.5781 141.744 11.0492 142.022 8.87674C142.438 5.61673 142.215 4.82635 140.743 4.3548C137.423 3.29233 134.494 7.0723 113.805 39.1174C106.544 50.3638 92.5885 72.3351 82.7915 87.9424C61.6805 121.575 38.2554 157.508 26.4794 174.325C17.4314 187.246 6.28944 201.322 5.57944 200.731C4.75444 200.041 12.2504 188.283 42.1004 143.444C43.4754 141.379 48.0614 134.618 52.2924 128.421C91.3734 71.1691 119.471 26.5481 124.246 14.1549C126.385 8.60216 126.441 8.01709 124.953 6.77602C123.465 5.53411 123.167 5.55497 121.186 7.04059C116.075 10.8748 96.5344 39.3736 58.2754 98.7924C29.8434 142.949 9.46244 173.09 8.55044 172.329C7.30344 171.288 29.1534 137.292 55.0094 100.044C69.4044 79.3066 88.6345 50.5967 98.0545 35.7789C109.9 17.1436 114.626 5.59837 110.895 4.40404C108.634 3.67959 106.651 5.23866 101.78 11.5751C93.6514 22.1471 58.7934 74.5576 33.7814 113.815C31.1494 117.947 27.5524 123.393 25.7894 125.917C24.0264 128.442 20.8774 133.137 18.7924 136.35C12.9184 145.401 5.11045 156.105 4.65745 155.726C3.90945 155.101 9.34544 144.047 16.0184 132.628C23.8414 119.239 32.9454 105.178 62.7844 60.4001C85.7154 25.9889 96.2754 9.16719 96.2754 7.0481C96.2754 6.37874 95.7514 5.56082 95.1114 5.23114C92.4174 3.84068 88.5294 9.37 57.4924 58.7308C37.3504 90.7659 26.8844 107.136 22.5444 113.398C21.4314 115.005 18.9524 118.61 17.0364 121.41C12.5874 127.914 5.61344 136.494 4.17344 137.237C0.534444 139.114 12.0754 119.17 31.9734 89.1943C68.5274 34.128 77.7644 19.4388 81.2184 10.8823C83.2944 5.73942 83.1304 3.2289 80.7194 3.2289C77.9154 3.2289 72.4704 10.995 43.2674 56.6443C34.3104 70.645 24.7434 85.4802 22.0064 89.6116C19.2694 93.7429 15.9124 98.8132 14.5464 100.879C9.67645 108.242 4.96344 114.251 4.41744 113.795C4.11244 113.54 12.1624 99.7321 22.3064 83.1099C50.4224 37.04 68.0614 7.23422 68.7254 4.67111C69.1684 2.96182 68.8854 2.21734 67.6434 1.81923C64.0794 0.677478 58.3454 8.41938 32.2944 49.5501C16.6124 74.3089 7.37344 88.3597 6.77444 88.3597C5.82644 88.3597 11.9554 77.4679 29.0844 48.7154C51.5904 10.9366 55.9004 2.7757 54.2304 1.09729C52.5174 -0.626189 51.7814 -0.435062 48.8224 2.49945ZM199.275 7.77588C199.275 10.3857 192.887 23.3289 187.72 31.1885C184.099 36.697 176.601 48.3399 171.059 57.0616C160.39 73.8499 154.474 82.4264 126.581 121.536C110.106 144.635 104.113 152.315 111.601 140.732C115.734 134.338 127.016 116.137 143.286 89.6116C157.201 66.9276 170.676 45.5289 179.552 32.0231C189.123 17.4583 199.275 4.97742 199.275 7.77588ZM242.857 11.3806C237.961 22.9625 211.159 62.7487 166.26 125.083C159.813 134.034 151.737 145.395 148.314 150.33C144.892 155.265 141.865 159.302 141.588 159.302C141.311 159.302 142.552 157.143 144.346 154.503C146.14 151.864 153.084 141.441 159.776 131.342C217.785 43.8054 242.931 6.83695 243.908 7.65236C244.122 7.83014 243.649 9.50855 242.857 11.3806ZM137.296 14.2675C132.211 26.0231 112.118 57.0783 85.8784 93.7379C80.0464 101.885 75.2754 108.658 75.2754 108.786C75.2754 108.915 72.1274 113.479 68.2794 118.929C64.4314 124.379 61.2824 128.463 61.2804 128.004C61.2794 127.545 64.2444 122.668 67.8694 117.166C71.4944 111.665 83.6474 92.6129 94.8744 74.8281C125.863 25.7427 137.916 7.6582 139.026 8.58463C139.32 8.83 138.541 11.3873 137.296 14.2675ZM136.775 45.7943C135.922 47.1714 134.999 48.2981 134.724 48.2981C134.449 48.2981 134.922 47.1714 135.775 45.7943C136.628 44.4172 137.551 43.2904 137.826 43.2904C138.101 43.2904 137.628 44.4172 136.775 45.7943ZM124.161 65.1991C123.509 66.2324 118.157 74.5885 112.268 83.7693C106.378 92.9501 96.2534 108.912 89.7684 119.24C71.6074 148.165 49.9244 181.769 40.4944 195.608C31.2994 209.101 19.3484 224.741 18.6664 224.172C17.0854 222.852 39.7754 187.943 87.9544 117.571C95.6544 106.325 107.015 89.5173 113.201 80.2222C119.387 70.9271 124.65 63.3212 124.897 63.3212C125.143 63.3212 124.812 64.1658 124.161 65.1991ZM199.474 106.095C196.739 110.342 191.013 119.449 186.749 126.335C150.328 185.156 129.876 216.545 121.219 226.906L118.081 230.662L118.67 227.74C120.001 221.137 149.689 174.908 181.168 130.418C183.152 127.615 188.971 119.259 194.1 111.848C199.228 104.438 203.654 98.3751 203.936 98.3751C204.217 98.3751 202.21 101.849 199.474 106.095ZM182.154 109.434C133.759 185.715 103.85 231.002 102.571 229.935C99.7254 227.559 125.3 187.525 165.286 131.76C170.059 125.104 175.854 116.935 178.164 113.607C180.473 110.278 182.584 107.556 182.854 107.556C183.124 107.556 182.809 108.4 182.154 109.434ZM74.9344 116.111C73.0434 118.98 63.0684 134.66 52.7674 150.956C25.9054 193.454 10.0214 216.89 8.08144 216.89C7.64744 216.89 8.35144 214.544 9.64544 211.674C15.0004 199.8 24.2674 185.975 73.9764 115.693C78.5344 109.25 79.2514 109.563 74.9344 116.111ZM230.623 129.882C189.531 196.663 180.228 211.14 171.23 222.315C168.642 225.529 165.6 228.85 164.47 229.695C162.452 231.204 162.424 231.197 162.962 229.278C164.872 222.456 178.113 201.885 209.074 157.633C221.439 139.96 232.444 124.186 233.529 122.579C244.084 106.957 242.902 109.925 230.623 129.882ZM100.725 120.992C99.3034 123.333 97.9064 125.053 97.6204 124.814C97.1004 124.381 102.085 116.737 102.887 116.737C103.119 116.737 102.146 118.652 100.725 120.992ZM133.243 118.894C132.702 120.08 131.198 122.616 129.899 124.528C128.6 126.44 120.099 140.21 111.007 155.129C85.2264 197.435 72.3844 216.905 63.2754 227.493C53.2354 239.165 53.2214 235.845 63.2404 218.767C70.7084 206.037 85.7104 183.947 108.725 151.79C117.103 140.085 126.093 127.41 128.704 123.622C133.576 116.555 134.97 115.102 133.243 118.894ZM90.6864 136.559C63.4134 179.972 37.9124 219.06 34.7404 222.315C31.4184 225.725 54.6024 189.447 92.7474 131.551C99.1694 121.804 97.6754 125.435 90.6864 136.559ZM127.194 153.251C97.3615 200.707 79.2985 227.166 74.5415 230.377C73.6295 230.993 75.9514 226.64 79.7014 220.705C85.7634 211.112 93.1654 200.213 124.954 154.086C129.619 147.314 133.655 141.775 133.922 141.775C134.189 141.775 131.161 146.94 127.194 153.251ZM139.275 163.475C138.686 164.393 137.98 165.144 137.705 165.144C137.43 165.144 137.686 164.393 138.275 163.475C138.864 162.557 139.57 161.806 139.845 161.806C140.12 161.806 139.864 162.557 139.275 163.475ZM192.275 209.379C191.686 210.297 190.98 211.048 190.705 211.048C190.43 211.048 190.686 210.297 191.275 209.379C191.864 208.461 192.57 207.71 192.845 207.71C193.12 207.71 192.864 208.461 192.275 209.379Z" fill="black"/>
</svg>
