<svg width="200" height="375" viewBox="0 0 200 375" fill="none" xmlns="http://www.w3.org/2000/svg">
<path fill-rule="evenodd" clip-rule="evenodd" d="M198.813 91.2659C198.159 92.2461 193.015 95.1361 187.381 97.6895L177.138 102.332L175.541 108.722C173.443 117.119 168.679 129.399 164.456 137.297L161.063 143.643L162.924 157.722C166.847 187.392 164.759 214.205 156.921 234.845L154.69 240.722L156.539 247.716C159.838 260.198 160.62 267.282 160.642 284.908C160.671 307.96 157.967 327.336 150.887 354.828C146.312 372.588 144.819 375.008 138.434 375C130.68 374.991 119.484 361.179 109.028 338.723L104.813 329.67L99.8104 333.387C86.7693 343.08 53.6542 360.668 41.9278 364.131C35.3779 366.065 24.4786 365.573 19.8871 363.135C15.2262 360.661 14.1354 358.111 16.2357 354.597C17.7896 351.998 25.2984 346.292 27.1675 346.292C29.0384 346.292 51.0022 336.884 62.4749 331.169C74.4894 325.184 88.484 316.446 93.442 311.836L96.5905 308.908L94.6808 303.096C92.6095 296.794 92.0072 296.516 86.6817 299.401C83.0086 301.39 66.7892 302.372 62.6059 300.859C58.3828 299.33 55.581 295.917 54.9282 291.505C54.1291 286.104 57.8673 278.661 65.3707 270.718L71.6226 264.1L65.5458 260.209C50.3865 250.502 38.642 237.995 33.3463 225.922C30.363 219.122 30.0722 217.764 30.5372 212.82C31.3345 204.344 35.8555 199.215 45.1359 196.257C49.7643 194.782 52.8262 194.913 72.2664 197.418L77.0962 198.041L75.8844 192.218C74.5318 185.721 72.1743 167.402 71.2849 156.476L70.7025 149.328L62.0253 141.625C57.2524 137.388 52.6727 133.381 51.8483 132.719C50.5824 131.703 48.1192 133.051 36.0226 141.382C21.9666 151.062 20.316 152.019 20.316 150.488C20.316 149.827 38.2754 136.951 46.1228 131.988L48.9038 130.228L36.5878 116.729C21.6262 100.331 11.8871 86.2027 5.10068 71.0527L1.54402 60.5L0 48.7058C0 38.2398 0.5 39 2.72775 32.8994C7.93136 23.6561 15.2686 19.5394 41.535 11.1278C69.5413 2.15874 93.4664 -1.50849 110.458 0.563721C141.054 4.29331 159.798 18.4969 174.086 48.7762C176.639 54.1879 177.486 57.3432 177.95 63.1787L178.545 70.6507L185.887 72.3032C192.401 73.7695 193.61 74.4011 196.614 77.9109C199.315 81.0663 200 82.6375 200 85.676C200 87.771 199.465 90.2868 198.813 91.2659ZM196.309 80.5722C193.776 77.0416 189.845 74.9437 184.184 74.1011L179.491 73.4031L178.921 84.3563C178.608 90.3808 178.092 96.3272 177.775 97.5717L177.199 99.834L182.053 97.7568C190.407 94.1817 196.756 90.8125 197.474 89.5719C198.749 87.374 198.211 83.2246 196.309 80.5722ZM176.749 73.712C174.199 72.1032 152.468 77.3644 138.066 83.0791L130.558 86.0572L136.486 92.1382C139.745 95.4816 144.008 100.793 145.958 103.942C147.908 107.089 149.652 109.665 149.835 109.665C150.017 109.665 155.865 107.654 162.83 105.194L175.494 100.722L176.059 95.0461C176.369 91.9234 176.749 88.4779 176.902 87.3888C177.494 83.18 177.394 74.119 176.749 73.712ZM172.5 50.5672C161.725 25.5016 143.933 9.75455 120.09 4.17947C110.395 1.91222 90.735 1.88945 77.6524 4.12997C60.4099 7.08236 32.4506 15.4465 19.0898 21.6483C10.7314 25.5273 6.43882 29.4807 3.54672 35.9617C1.36884 40.8447 1.17021 42.1863 1.54402 49.5336C2.02167 58.9234 5.08804 68.3469 11.302 79.5237C18.5851 92.6233 32.2438 110.233 44.2962 122.06L51.0086 128.648L61.3309 122.021L71.6524 115.396L72.7368 108.347C73.8844 100.887 76.5408 91.1719 78.6673 86.6591C80.5607 82.6405 85.2479 77.0892 88.1255 75.4575C93.9278 72.1675 111.321 75.1922 122.578 81.4484L128.678 84.8384L132.786 82.9078C142.53 78.3277 159.849 73.3487 172.352 71.5329L176.758 70.8933L176.16 64.2896C175.763 59.9045 174.534 55.2947 172.5 50.5672ZM174.18 103.725C173.884 103.725 168.41 105.55 162.016 107.781L150.391 111.837L152.2 115.727C153.196 117.866 155.38 124.092 157.054 129.562C158.727 135.031 160.293 139.722 160.534 139.985C161.269 140.792 170.182 120.301 172.478 112.526C174.824 104.574 174.989 103.725 174.18 103.725ZM161.597 162.215C160.031 148.338 159.26 145.789 157.637 149.114C156.842 150.743 156.85 152.264 157.667 155.46C159.335 161.977 159.062 181.276 157.195 188.814C155.125 197.177 151.128 206.737 147.182 212.759L144.007 217.604L146.426 221.802C147.756 224.109 149.949 228.663 151.298 231.92L153.752 237.842L155.233 233.955C162.417 215.101 164.684 189.551 161.597 162.215ZM157.106 259.453C156.342 255.034 155.199 249.78 154.566 247.775L153.415 244.13L150.071 249.652C147.117 254.53 146.724 255.899 146.705 261.379C146.634 281.187 135.242 302.698 115.314 320.652C110.988 324.549 107.326 328.087 107.174 328.514C106.757 329.691 113.894 344.813 118.582 352.686C123.636 361.173 132.949 371.683 136.209 372.58C139.871 373.588 142.942 372.304 144.433 369.139C148.53 360.454 156.571 321.989 158.419 302.234C159.506 290.618 158.861 269.595 157.106 259.453ZM156.106 133.231C153.179 123.039 148.949 112.636 147.731 112.636C146.743 112.636 137.881 114.529 136.257 115.086C135.713 115.273 138.173 118.728 141.725 122.762C146.439 128.119 149.244 132.453 152.121 138.821C155.681 146.7 156.178 147.369 157.263 145.742C158.881 143.315 158.824 142.702 156.106 133.231ZM156.189 159.911C155.879 156.781 155.298 154.219 154.897 154.219C154.496 154.219 152.466 156.689 150.387 159.708C148.308 162.728 141.961 171.16 136.284 178.447C130.605 185.733 125.959 192.086 125.959 192.564C125.959 193.042 127.411 194.968 129.186 196.845C130.959 198.721 134.673 203.486 137.437 207.435C140.2 211.383 142.77 214.613 143.146 214.613C144.294 214.613 149.437 205.165 152.156 198.061C153.57 194.368 155.155 188.45 155.678 184.911C157.527 172.403 157.509 173.274 156.189 159.911ZM150.947 141.035C147.759 133.484 140.657 123.367 135.54 119.088C132.591 116.621 131.884 116.494 119.95 116.286C109.72 116.108 106.875 115.732 104.289 114.214C102.551 113.194 100.83 111.864 100.465 111.259C99.2623 109.266 99.7463 105.79 101.354 104.876C105.06 102.77 123.268 107.378 129.811 112.08C131.787 113.5 132.679 113.509 139.044 112.173C142.918 111.36 146.292 110.472 146.54 110.2C148.081 108.51 131.207 87.8839 128.283 87.8839C125.274 87.8839 100.089 100.753 83.4149 110.812C72.3169 117.506 73.0826 115.693 72.7639 136.011L72.5761 148.001L78.726 152.947C86.4162 159.133 101.323 170.06 102.07 170.06C102.378 170.06 107.431 174.729 113.298 180.437L123.967 190.813L130.607 182.226C134.258 177.502 138.695 171.83 140.467 169.621C146.55 162.035 153.95 151.044 153.95 149.597C153.95 148.8 152.599 144.948 150.947 141.035ZM148.641 231.094C143.308 218.813 143.395 218.88 138.826 223.595C136.715 225.773 134.989 227.758 134.989 228.005C134.989 228.254 136.31 230.366 137.923 232.698C140.535 236.473 142.941 241.67 145.59 249.257C146.438 251.685 146.497 251.645 149.281 246.782C150.837 244.063 152.118 241.237 152.127 240.5C152.136 239.763 150.568 235.531 148.641 231.094ZM139.366 264.615C133.421 271.583 122.534 281.03 115.326 285.472C111.55 287.799 110.75 288.836 109.833 292.597C108.714 297.184 104.965 303.854 101.685 307.09C100.634 308.128 99.7743 309.547 99.7743 310.243C99.7743 311.709 104.249 323.581 105.303 324.91C106.935 326.97 124.627 309.383 132.081 298.293C139.996 286.519 144.676 273.521 144.846 262.842L144.921 258.104L139.366 264.615ZM141.005 242.267C139.696 239.236 137.299 235.113 135.679 233.105L132.731 229.455L125.959 234.276C122.235 236.929 118.172 239.437 116.93 239.851C113.414 241.022 91.6289 252.565 87.4456 255.474L83.6939 258.081L85.0853 263.326C85.8501 266.211 86.9291 268.896 87.4817 269.292C88.6528 270.131 102.084 274.717 104.74 275.184C105.879 275.384 107.381 277.372 108.804 280.564L111.061 285.627L116.824 281.782C124.921 276.381 133.186 268.98 139.115 261.82C143.812 256.148 144.153 255.412 143.784 251.74C143.565 249.562 142.314 245.3 141.005 242.267ZM131.548 203.31C127.917 198.636 124.583 194.811 124.139 194.811C123.695 194.811 120.898 198.318 117.922 202.603L112.513 210.396L117.046 213.101C119.539 214.589 124.201 218.011 127.406 220.704L133.233 225.6L135.9 223.516C137.367 222.371 139.176 220.483 139.919 219.32C141.602 216.685 140.913 215.367 131.548 203.31ZM127.727 223.695C123.916 220.224 112.945 212.633 111.742 212.633C111.353 212.633 109.223 216.238 107.007 220.646C102.786 229.045 98.2041 234.414 95.2596 234.414C92.7079 234.414 87.8302 229.31 85.1539 223.839C83.87 221.215 81.6713 215.058 80.2673 210.157C78.8641 205.257 77.6298 201.094 77.525 200.907C77.0257 200.019 59.6813 197.795 53.2731 197.798C28.8903 197.807 25.4447 218.18 45.9747 240.949C52.884 248.61 68.0036 260.53 72.3657 261.755C73.6397 262.112 75.5142 261.337 77.8384 259.491L81.3743 256.682L79.3562 248.766C77.1314 240.039 76.8099 237.384 77.9756 237.384C78.4018 237.384 79.6876 241.282 80.8334 246.047C81.9792 250.812 82.9914 254.828 83.0817 254.972C83.1729 255.116 89.0989 251.974 96.251 247.989C103.403 244.004 111.896 239.503 115.124 237.986C120.823 235.309 131.37 228.484 131.353 227.484C131.348 227.211 129.716 225.506 127.727 223.695ZM122.745 110.718C115.905 107.912 110.973 106.748 105.803 106.719C102.188 106.699 101.498 106.98 101.743 108.374C102.379 112.001 107.633 113.96 117.971 114.428C129.182 114.935 130.508 113.903 122.745 110.718ZM117.317 81.2553C109.779 77.9277 95.4221 75.2466 91.2659 76.3902C84.6312 78.2159 78.2167 89.5403 75.4627 104.288C74.5544 109.152 73.9178 113.265 74.0488 113.431C74.1797 113.596 79.5133 110.675 85.9016 106.942C99.1061 99.2231 122.65 86.8938 124.184 86.8938C127.11 86.8938 123.643 84.0483 117.317 81.2553ZM112.989 183.094C107.841 178.151 99.2063 170.898 93.8014 166.975C88.3955 163.051 81.8573 158.13 79.2713 156.039C76.6853 153.949 74.2303 152.238 73.8158 152.238C72.4451 152.238 75.1846 178.464 78.1264 193.506L79.0971 198.468L88.7585 201.161C94.0722 202.643 101.163 205.119 104.516 206.663L110.612 209.471L116.408 201.399C119.595 196.959 122.236 193.045 122.275 192.702C122.315 192.359 118.136 188.035 112.989 183.094ZM101.966 292.718C98.5562 294.313 95.6081 296.137 95.4158 296.771C94.9679 298.242 97.8817 306.689 98.8361 306.689C100.746 306.689 109.431 291.549 108.361 290.086C108.253 289.938 105.375 291.123 101.966 292.718ZM107.367 282.002C106.067 278.439 105.447 277.916 100.821 276.489C98.0108 275.622 94.1363 274.247 92.2122 273.433C90.288 272.62 88.484 272.205 88.2041 272.513C87.5377 273.244 93.6027 293.818 94.484 293.818C95.6018 293.818 108.804 287.042 108.804 286.469C108.804 286.177 108.157 284.166 107.367 282.002ZM101.806 207.868C94.3585 204.753 81.1368 201.057 80.3855 201.88C79.7986 202.523 84.1102 216.987 86.2754 221.64C90.5914 230.916 95.6587 233.903 99.3968 229.374C101.598 226.707 108.71 213.486 108.763 211.962C108.786 211.321 105.655 209.479 101.806 207.868ZM100.636 319.296C99.1233 315.398 97.7318 312.04 97.5449 311.835C97.3571 311.63 95.0393 313.224 92.3946 315.378C80.0749 325.41 58.7639 336.457 29.9693 347.734C25.5982 349.446 21.6858 351.77 19.6776 353.847C16.5463 357.085 16.4912 357.263 18.0343 359.133C18.9129 360.197 21.0528 361.583 22.7892 362.211C26.9381 363.712 40.6149 362.945 44.6953 360.983C46.4334 360.146 52.5282 357.332 58.2393 354.73C76.028 346.624 103.386 330.02 103.386 327.331C103.386 326.809 102.148 323.193 100.636 319.296ZM88.2555 282.022L84.8758 270.72L79.1278 267.908L73.3806 265.095L66.4054 272.774C61.5684 278.099 58.9282 281.911 57.7896 285.212C56.2447 289.693 56.2366 290.175 57.6542 293.435C59.6108 297.933 63.6542 299.759 71.6596 299.759C76.9174 299.759 87.9792 297.112 90.9706 295.138C91.9666 294.482 91.9305 294.308 88.2555 282.022ZM81.9242 260.013C81.5612 259.628 80.0587 260.377 78.5851 261.676L75.9061 264.038L79.2334 265.562C81.0637 266.4 82.8271 267.086 83.154 267.086C83.8907 267.086 82.828 260.971 81.9242 260.013ZM71.1747 118.576C70.2682 118.576 52.8515 129.881 52.8713 130.457C52.8804 130.729 56.8343 134.413 61.6587 138.643L70.4289 146.334L70.9219 133.692C71.1928 126.74 71.498 120.494 71.5991 119.814C71.7002 119.132 71.5097 118.576 71.1747 118.576Z" fill="black"/>
</svg>
