<svg width="152" height="156" viewBox="0 0 152 156" fill="none" xmlns="http://www.w3.org/2000/svg">
<path d="M7.0529 16.55L7.05291 16.55C12.2048 10.538 17.0231 7.1255 24.0915 4.47379C27.0402 3.36764 29.4433 3.09083 32.4856 3.03638C33.5385 3.01754 34.6795 3.02579 35.9499 3.03497C38.3315 3.05219 41.1678 3.0727 44.7301 2.92417C46.9384 2.83221 60.4228 2.30206 73.9383 1.81942C87.4721 1.33613 100.988 0.902568 103.295 0.999577C113.32 1.42134 118.886 2.43149 125.145 4.93743C130.597 7.12024 134.272 9.58933 138.546 13.9447L138.903 13.5945L138.546 13.9447C145.213 20.7388 148.905 29.096 150.213 40.4569C151.315 50.04 150.285 54.5244 148.977 59.5474C148.921 59.762 148.865 59.9776 148.808 60.1946C147.521 65.1156 146.046 70.7551 146.047 82.0444V82.0733L146.05 82.102C147.221 92.1811 148.535 96.6166 149.479 99.801C149.614 100.257 149.741 100.686 149.859 101.104C150.78 104.35 151.157 106.827 150.209 115.137C149.138 124.524 146.215 132.309 141.559 138.269C139.827 140.486 135.863 144.356 133.684 145.959C127.791 150.294 120.336 152.994 111.332 154.025C105.962 154.64 97.7887 154.816 74.2245 154.815C38.4309 154.814 33.6548 154.472 24.9675 151.44C21.6044 150.267 19.2078 148.366 17.0273 146.059C15.9336 144.902 14.8978 143.647 13.8177 142.327C13.7443 142.237 13.6707 142.147 13.5968 142.056C12.5873 140.821 11.5353 139.534 10.3716 138.242C5.09644 132.383 4.37444 126.45 3.20188 116.815C3.13511 116.266 3.06687 115.706 2.99625 115.132C2.90239 114.37 2.78155 113.531 2.64379 112.575C1.85173 107.077 0.500191 97.6962 0.5 76.6703C0.5 44.7092 1.06211 41.5678 2.984 34.1539L2.5 34.0285L2.984 34.1539C3.51103 32.1205 3.78979 29.7397 4.06532 27.3865C4.18092 26.3992 4.29596 25.4167 4.42853 24.4668C4.88639 21.1859 5.55034 18.3033 7.0529 16.55ZM63.4625 143.36L63.5773 143.425H63.7092C92.4507 143.423 109.615 141.601 115.67 140.084L115.549 139.599L115.67 140.084C121.297 138.675 125.044 136.707 128.617 133.257C132.521 129.487 134.792 125.393 136.264 119.514C137.8 113.379 138.074 106.919 138.068 78.2431C138.066 67.4961 138.52 59.161 138.915 52.9531C138.973 52.0325 139.031 51.1577 139.085 50.3282C139.213 48.3637 139.325 46.6533 139.398 45.1909C139.5 43.1168 139.526 41.5037 139.4 40.3457C138.859 35.3689 137.309 31.7889 135.151 28.8426C133.003 25.9114 130.263 23.6226 127.393 21.2276C127.095 20.9791 126.789 20.7216 126.473 20.4567C120.573 15.5012 111.57 7.93908 98.4696 7.42499C96.7288 7.35665 92.9879 7.72137 88.303 8.29783C83.5989 8.87663 77.8929 9.67581 72.1897 10.491C70.6217 10.7151 69.0549 10.9403 67.5098 11.1624C57.7885 12.5595 48.9243 13.8334 46.012 13.9478L46.0316 14.4475L46.012 13.9478C37.967 14.2641 33.8801 14.8465 29.3828 16.3439L29.5407 16.8183L29.3828 16.3439C25.1143 17.7652 22.0166 19.6915 18.8816 22.8749L19.2378 23.2258L18.8816 22.875C15.6187 26.1883 13.7156 29.3865 12.3302 33.8812C10.1304 41.0185 7.0072 53.1376 7.17225 88.4696C7.23853 102.625 8.00503 108.897 8.96364 112.41C9.44645 114.179 9.97676 115.243 10.4704 116.234L10.4712 116.236C10.9576 117.212 11.4035 118.109 11.7672 119.589C13.155 125.239 15.0222 128.789 18.0884 131.194C21.1323 133.582 25.293 134.786 31.114 135.915L31.2092 135.425L31.114 135.915C32.6717 136.218 34.4124 136.193 36.4429 136.163C42.2484 136.08 50.4227 135.963 63.4625 143.36ZM49.149 47.3266L49.149 47.3266C49.5521 47.0092 49.9317 46.706 50.219 46.4728C50.3625 46.3563 50.4843 46.2563 50.5749 46.1802C50.6467 46.1199 50.7399 46.0414 50.7863 45.9892L50.7864 45.989C50.7845 45.9912 50.7857 45.9898 50.7913 45.9846C50.7978 45.9786 50.8103 45.9673 50.8309 45.9502C50.8656 45.9214 50.9129 45.8846 50.9735 45.8399C51.0944 45.7505 51.256 45.6384 51.4513 45.5082C51.8413 45.2484 52.3513 44.9259 52.909 44.5855C54.0262 43.9034 55.3154 43.1608 56.1891 42.7149L55.9618 42.2695L56.1892 42.7148C57.6169 41.986 58.8688 41.8471 60.3156 41.6866C60.6726 41.647 61.0415 41.6061 61.4278 41.5547C63.3534 41.2984 65.5418 40.7829 68.4558 38.8211C69.995 38.6118 72.5601 38.5464 75.1019 38.6071C77.7108 38.6694 80.226 38.863 81.5305 39.1496C84.3026 39.7587 85.0452 39.9692 87.3091 40.785L87.4786 40.3146L87.3091 40.785C98.7399 44.9034 108.034 54.5568 111.486 65.8812C112.96 70.7168 113.356 73.7449 113.205 79.0726C113.075 83.6963 112.596 86.4421 111.241 90.3797C109.781 94.6211 106.881 98.2692 103.354 101.504C99.827 104.738 95.7025 107.533 91.824 110.082C90.8281 110.737 89.9757 111.409 89.1876 112.058C88.9521 112.252 88.7239 112.442 88.5 112.629C87.968 113.074 87.4598 113.498 86.9333 113.902C85.4586 115.032 83.8963 115.955 81.5794 116.431C80.2028 116.714 77.9432 116.914 75.608 116.996C73.2754 117.078 70.9108 117.04 69.3291 116.859C65.4378 116.414 60.7903 115.083 57.2541 113.4C46.9639 108.502 39.0945 99.1868 36.0737 88.3332C34.9007 84.1188 34.4103 77.4534 34.9485 73.0264C35.4834 68.6276 36.9416 63.8676 38.9542 59.9492L38.5094 59.7208L38.9542 59.9492C39.4104 59.0609 40.1466 57.7806 40.8189 56.6754C41.1546 56.1235 41.4717 55.6198 41.7274 55.234C41.8554 55.0407 41.9658 54.8805 42.0541 54.76C42.0982 54.6997 42.1347 54.6522 42.1636 54.617C42.1892 54.5857 42.2025 54.5718 42.2054 54.5688C42.206 54.5681 42.2061 54.568 42.2057 54.5684C42.2544 54.5237 42.3131 54.453 42.3545 54.4026C42.4067 54.339 42.4717 54.2573 42.5445 54.164C42.6905 53.977 42.8733 53.7363 43.0586 53.4864L43.0587 53.4864C43.5658 52.8024 44.6905 51.5744 45.9041 50.3466C47.1156 49.121 48.3779 47.9336 49.149 47.3266ZM107.396 32.8412C108.603 30.2804 110.638 28.5489 113.237 27.8502C116.292 27.0285 119.32 27.8534 121.604 30.1409C122.431 30.9694 122.793 31.8645 122.842 32.7964C122.892 33.7429 122.62 34.7639 122.109 35.8246C121.083 37.9543 119.163 40.1109 117.359 41.916C115.017 44.2584 113.22 45.0584 111.75 44.7416C110.26 44.4205 108.835 42.9017 107.393 39.857C107.071 39.1764 106.92 38.8092 106.839 38.3732C106.755 37.9226 106.742 37.3785 106.746 36.3379C106.75 35.317 106.771 34.7648 106.856 34.3081C106.94 33.8657 107.088 33.4941 107.396 32.8412ZM92.4525 59.1001C88.4655 55.1061 83.7609 52.6853 78.2411 51.7897C71.6465 50.7199 64.9576 52.1828 59.1771 55.9495C58.3093 56.5149 56.8307 57.8502 55.4591 59.2187C54.0879 60.5868 52.7533 62.0585 52.1949 62.9166C51.2775 64.3263 50.0894 65.793 48.8225 67.3191C48.6413 67.5374 48.4585 67.7569 48.2748 67.9775C47.1805 69.2914 46.0535 70.6445 45.0377 72.0162C42.6815 75.1978 40.807 78.6254 41.3743 82.1243C41.613 83.5963 42.3967 84.9712 43.4556 86.2528C44.5158 87.5361 45.8776 88.7566 47.3185 89.9193C48.3604 90.7599 49.4579 91.5814 50.5218 92.3776C50.9274 92.6812 51.3281 92.9811 51.719 93.277C53.1453 94.3568 54.4425 95.3848 55.4302 96.3782C59.0935 100.063 63.5805 102.544 68.5034 103.601C69.9635 103.915 72.1587 104.052 74.304 104.033C76.4475 104.013 78.6042 103.836 79.9839 103.494C85.0026 102.253 88.9125 100.042 92.5778 96.3765C95.6859 93.2676 97.5954 90.2645 98.9231 86.382C100.009 83.2058 100.405 80.2964 100.255 76.6497C100.112 73.1942 99.6524 71.0027 98.4048 67.8448C97.0202 64.3401 95.5816 62.2347 92.4525 59.1001Z" fill="black" stroke="black"/>
</svg>
